<svg width="512" height="512" viewBox="0 0 512 512" fill="none" xmlns="http://www.w3.org/2000/svg">
  <!-- Octopus Icon for Second Brain -->
  <defs>
    <linearGradient id="grad1" x1="0%" y1="0%" x2="100%" y2="100%">
      <stop offset="0%" style="stop-color:#8b5cf6;stop-opacity:1" />
      <stop offset="100%" style="stop-color:#ec4899;stop-opacity:1" />
    </linearGradient>
  </defs>
  
  <!-- Main circle (head) -->
  <circle cx="256" cy="200" r="120" fill="url(#grad1)"/>
  
  <!-- Eyes -->
  <circle cx="220" cy="180" r="20" fill="white"/>
  <circle cx="292" cy="180" r="20" fill="white"/>
  <circle cx="225" cy="185" r="10" fill="#1a1a1a"/>
  <circle cx="297" cy="185" r="10" fill="#1a1a1a"/>
  
  <!-- Tentacles (8 paths) -->
  <path d="M 180 280 Q 120 320 100 400 Q 90 450 110 480" stroke="url(#grad1)" stroke-width="20" fill="none" stroke-linecap="round"/>
  <path d="M 200 300 Q 150 350 140 420 Q 135 470 155 490" stroke="url(#grad1)" stroke-width="18" fill="none" stroke-linecap="round"/>
  <path d="M 230 310 Q 200 370 200 440" stroke="url(#grad1)" stroke-width="16" fill="none" stroke-linecap="round"/>
  <path d="M 256 315 Q 256 380 256 450" stroke="url(#grad1)" stroke-width="16" fill="none" stroke-linecap="round"/>
  <path d="M 282 310 Q 312 370 312 440" stroke="url(#grad1)" stroke-width="16" fill="none" stroke-linecap="round"/>
  <path d="M 312 300 Q 362 350 372 420 Q 377 470 357 490" stroke="url(#grad1)" stroke-width="18" fill="none" stroke-linecap="round"/>
  <path d="M 332 280 Q 392 320 412 400 Q 422 450 402 480" stroke="url(#grad1)" stroke-width="20" fill="none" stroke-linecap="round"/>
  <path d="M 280 290 Q 340 340 370 410" stroke="url(#grad1)" stroke-width="18" fill="none" stroke-linecap="round"/>
  
  <!-- Neural connections (subtle lines) -->
  <path d="M 100 400 L 200 440" stroke="#5ee3ff" stroke-width="2" opacity="0.3" stroke-dasharray="5,5"/>
  <path d="M 140 420 L 256 450" stroke="#5ee3ff" stroke-width="2" opacity="0.3" stroke-dasharray="5,5"/>
  <path d="M 312 440 L 412 400" stroke="#5ee3ff" stroke-width="2" opacity="0.3" stroke-dasharray="5,5"/>
  
  <!-- Smile -->
  <path d="M 210 220 Q 256 240 302 220" stroke="white" stroke-width="4" fill="none" stroke-linecap="round"/>
</svg>
